<?xml version="1.0" encoding="utf-8"?>
<!-- Generator: Adobe Illustrator 20.1.0, SVG Export Plug-In . SVG Version: 6.00 Build 0)  -->
<!DOCTYPE svg PUBLIC "-//W3C//DTD SVG 1.1//EN" "http://www.w3.org/Graphics/SVG/1.1/DTD/svg11.dtd">
<svg version="1.1" id="Layer_1" xmlns="http://www.w3.org/2000/svg" xmlns:xlink="http://www.w3.org/1999/xlink" x="0px" y="0px"
	 viewBox="0 0 650 117.5" style="enable-background:new 0 0 650 117.5;" xml:space="preserve">
<style type="text/css">
	.st0{fill:#FFFFFF;}
	.st1{fill:#007676;}
</style>
<g>
	<path class="st0" d="M143.6,98.7c-0.8-0.5-1.8-0.9-2.8-0.9c-2.1,0-3.5,1.5-3.5,3.7s1.5,4.2,3.8,4.2c1.1,0,2.2-0.4,3.2-0.9l0,0
		l-0.8,1.7c-0.7,0.3-1.5,0.5-2.3,0.5c-3.5,0-5.7-2-5.7-5.2c0-3.1,2.2-5.2,5.3-5.2c0.9,0,1.8,0.2,2.7,0.4v1.7
		C143.5,98.7,143.6,98.7,143.6,98.7z"/>
	<path class="st0" d="M164.7,101.6c0,3.1-2.5,5.3-5.5,5.3s-5.5-2.1-5.5-5.2c0-2.9,2.5-5.2,5.6-5.2
		C162.5,96.5,164.7,98.9,164.7,101.6z M155.4,101.6c0,2.1,1.5,4.3,3.8,4.3s3.7-1.7,3.7-3.9c0-2.2-1.4-4.3-3.8-4.3
		C156.9,97.6,155.4,99.3,155.4,101.6z"/>
	<path class="st0" d="M176.5,104.7c0,0.8,0,1.4,0.8,1.9l0,0h-2.7l0,0c0.8-0.5,0.8-1.1,0.8-1.9v-6c0-0.8,0-1.4-0.8-1.9l0,0h2.2l0,0
		c0.1,0.2,0.1,0.3,0.2,0.4l0.2,0.3l5.5,6.9v-5.7c0-0.8,0-1.4-0.8-1.9l0,0h2.6l0,0c-0.8,0.5-0.8,1.1-0.8,1.9v8.4
		c-1.1-0.4-1.5-0.9-2.2-1.7l-5.1-6.5v5.8L176.5,104.7L176.5,104.7z"/>
	<path class="st0" d="M200.4,98.6c-0.6-0.6-1.5-0.9-2.4-0.9s-1.9,0.3-1.9,1.4c0,2.1,5.2,2,5.2,4.8c0,1.6-1.7,3.1-4,3.1
		c-0.9,0-1.8-0.1-2.7-0.5l-0.4-1.9c0.9,0.8,2.1,1.2,3.3,1.2c0.9,0,2.1-0.5,2.1-1.6c0-2.3-5.2-1.9-5.2-5.1c0-1.9,1.9-2.6,3.8-2.6
		c0.8,0,1.5,0.1,2.2,0.3L200.4,98.6L200.4,98.6z"/>
	<path class="st0" d="M218.3,105.7c-0.7,0.9-1.9,1.2-2.9,1.2s-2-0.3-2.7-1.1c-0.8-0.9-0.8-1.9-0.8-3v-4c0-0.7,0.1-1.8-0.7-2.1l0,0
		h2.9l0,0c-0.8,0.3-0.7,1.4-0.7,2.1v4c0,2,0.8,2.9,2.4,2.9c0.8,0,1.7-0.3,2.2-1.1c0.3-0.4,0.3-0.8,0.3-1.4v-4.5
		c0-0.7,0.1-1.8-0.7-2.1l0,0h2.8l0,0c-0.8,0.3-0.7,1.4-0.7,2.1v5.7c0,0.7-0.1,1.8,0.7,2.1l0,0h-2.2L218.3,105.7
		C218.2,105.7,218.3,105.7,218.3,105.7z"/>
	<path class="st0" d="M235,105.6c1,0.1,1.9-0.3,2.7-0.9l0,0l-0.8,2h-6.2l0,0c0.8-0.3,0.7-1.4,0.7-2.1v-5.7c0-0.7,0.1-1.8-0.7-2.1
		l0,0h2.9l0,0c-0.8,0.3-0.7,1.4-0.7,2.1v6.5L235,105.6z"/>
	<path class="st0" d="M250.6,104.7c0,0.9,0,1.4,0.8,1.9l0,0h-3l0,0c0.8-0.3,0.7-1.4,0.7-2.1v-6.7h-1.3c-0.6,0-1.3,0.2-1.8,0.6l0,0
		l0.5-1.8l0,0c0.2,0.1,0.4,0.1,0.6,0.1h0.4h5.6c0.3,0,0.5,0,0.7-0.1l0,0l-0.5,1.8l0,0c-0.2-0.5-0.8-0.6-1.3-0.6h-1.4V104.7
		L250.6,104.7z"/>
	<path class="st0" d="M263.6,98.9c0-0.7,0.1-1.8-0.7-2.1l0,0h2.8l0,0c-0.8,0.3-0.7,1.4-0.7,2.1v5.7c0,0.7-0.1,1.8,0.7,2.1l0,0h-2.8
		l0,0c0.8-0.3,0.7-1.4,0.7-2.1V98.9z"/>
	<path class="st0" d="M277.7,104.7c0,0.8,0,1.4,0.8,1.9l0,0h-2.7l0,0c0.8-0.5,0.8-1.1,0.8-1.9v-6c0-0.8,0-1.4-0.8-1.9l0,0h2.2l0,0
		c0.1,0.2,0.1,0.3,0.2,0.4l0.2,0.3l5.5,6.9v-5.7c0-0.8,0-1.4-0.8-1.9l0,0h2.6l0,0c-0.8,0.5-0.8,1.1-0.8,1.9v8.4
		c-1.1-0.4-1.5-0.9-2.2-1.7l-5.1-6.5L277.7,104.7L277.7,104.7L277.7,104.7z"/>
	<path class="st0" d="M304,98.6L304,98.6c-0.7-0.7-1.8-0.9-2.7-0.9c-2.3,0-4.1,1.5-4.1,3.9s1.9,4.2,4.3,4.2c0.7,0,1.4-0.1,2.1-0.3
		v-2.2c0-0.7,0-1.4-0.7-1.7l0,0h2.3l0,0c-0.1,0.2-0.1,0.4-0.1,0.6v3.5c0,0.2,0,0.5,0.1,0.7c-1.2,0.2-2.4,0.5-3.6,0.5
		c-3.8,0-6.1-2.1-6.1-5.1c0-3.2,2.6-5.2,6.2-5.2c0.8,0,1.6,0.1,2.4,0.3L304,98.6L304,98.6z"/>
	<path class="st0" d="M332,96.8c2,0,3.4,0.9,3.4,2.6s-1.6,2.8-3.3,2.8c-0.4,0-0.8,0-1.1-0.2c1.3-0.1,2.7-0.9,2.7-2.3
		c0-1.3-0.9-1.8-2.1-1.8c-0.4,0-0.7,0-1,0.1v6.8c0,0.8,0,1.4,0.8,1.9l0,0h-3l0,0c0.8-0.3,0.7-1.4,0.7-2.1v-5.7
		c0-0.7,0.1-1.8-0.7-2.1l0,0C328.4,96.8,332,96.8,332,96.8z"/>
	<path class="st0" d="M348.7,104.7c0,0.9,0,1.4,0.8,1.9l0,0h-3l0,0c0.8-0.3,0.7-1.4,0.7-2.1v-6.7h-1.3c-0.6,0-1.3,0.2-1.8,0.6l0,0
		l0.5-1.8l0,0c0.2,0.1,0.4,0.1,0.6,0.1h0.4h5.6c0.3,0,0.5,0,0.7-0.1l0,0l-0.5,1.8l0,0c-0.2-0.5-0.8-0.6-1.3-0.6h-1.3v6.9
		C348.8,104.7,348.7,104.7,348.7,104.7z"/>
	<path class="st0" d="M365.4,104.7c0,0.9,0,1.4,0.8,1.9l0,0h-2.9l0,0c0.7-0.4,0.6-1.4,0.6-2.1v-2.2l-2.5-4c-0.4-0.7-0.7-1.2-1.4-1.5
		h1.4c0.5,0,0.9,0.1,1.1,0.4l2.4,3.9l1.9-2.8c0.3-0.4,0.6-1.1-0.2-1.5l0,0h2.6l-3.7,5.6L365.4,104.7
		C365.5,104.7,365.4,104.7,365.4,104.7z"/>
	<path class="st0" d="M395.8,105.6c1,0.1,1.9-0.3,2.7-0.9l0,0l-0.8,2h-6.2l0,0c0.8-0.3,0.7-1.4,0.7-2.1v-5.7c0-0.7,0.1-1.8-0.7-2.1
		l0,0h2.9l0,0c-0.8,0.3-0.7,1.4-0.7,2.1v6.5L395.8,105.6z"/>
	<path class="st0" d="M411.4,104.7c0,0.9,0,1.4,0.8,1.9l0,0h-3l0,0c0.8-0.3,0.7-1.4,0.7-2.1v-6.7h-1.3c-0.6,0-1.3,0.2-1.8,0.6l0,0
		l0.5-1.8l0,0c0.2,0.1,0.4,0.1,0.6,0.1h0.4h5.6c0.3,0,0.5,0,0.7-0.1l0,0l-0.5,1.8l0,0c-0.2-0.5-0.8-0.6-1.3-0.6h-1.3v6.9
		C411.5,104.7,411.4,104.7,411.4,104.7z"/>
	<path class="st0" d="M424.4,98.9c0-0.7,0.1-1.8-0.7-2l0,0h3.7c3.4,0,5.5,1.9,5.5,4.8c0,3-2.3,5-5.6,5h-3.6l0,0
		c0.8-0.5,0.7-1.2,0.7-2.1V98.9z M425.9,105.5c0.4,0.1,0.7,0.1,1.1,0.1c2.2,0,4.2-1.2,4.2-3.8s-1.5-3.9-4-3.9
		c-0.5,0-0.9,0.1-1.3,0.2L425.9,105.5L425.9,105.5z"/>
</g>
<path class="st1" d="M92.7,39.4C81.4,60.1,62.1,64.3,62.1,64.3V81h-6.2V59.5c21.6-3.9,31.9-23.2,32.5-24.4l-3.7-3.7
	C74.4,53,51.3,55.2,51.3,55.2V71H45V49.3c26.6-0.6,34.6-22.2,34.8-22.8L56.1,2.7L0,58.8l56.1,56.1l56.1-56.1L92.7,39.4z"/>
<g>
	<path class="st0" d="M152.5,34.9h-17.9v0.2c3.7,1.3,3.2,6.2,3.2,9.2v25.2c0,3,0.4,7.9-3.3,9.1v0.2h14.6v-0.2
		c-3.9-2-3.8-4.7-3.8-8.4V40.1c1.7-0.3,3.4-0.4,5.1-0.4c5.9,0,10.4,2.3,10.4,8.2c0,6.4-6.8,9.9-13.1,10.2c1.7,0.7,3.5,0.9,5.3,0.9
		c8.3,0,16.1-4.9,16.1-12.5C169.3,39.1,162,34.9,152.5,34.9z"/>
	<path class="st0" d="M173.2,43.8V44l0.3,0.1c2.4,0.8,2.3,3.7,2.3,6.1V51v20.6v0.7c0,2.3,0.1,5.4-2.3,6.1l-0.3,0.1v0.2h12v-0.2
		l-0.3-0.1c-2.3-0.8-2.3-3.8-2.3-6.1v-0.7V51v-0.7c0-2.3-0.1-5.4,2.3-6.2l0.3-0.1v-0.2h-0.4C184.9,43.8,173.2,43.8,173.2,43.8z"/>
	<path class="st0" d="M219.4,43.4L219.4,43.4c-0.8,0.3-1.7,0.4-2.6,0.4h-24l-0.6-0.1c-0.5-0.1-1-0.1-1.5-0.3h-0.1h-0.1l-2.1,6.3h0.2
		l0.1-0.1c1.5-1.3,3.9-2,6.6-2c0,0,4.2,0,5,0c0,0.9,0,24,0,24v0.7c0,0.3,0,0.6,0,0.8c0,2.2-0.2,4.6-2.3,5.3l-0.3,0.1v0.2h12.4v-0.2
		l-0.2-0.1c-2.7-1.5-2.8-3.2-2.8-6c0-0.1,0-24,0-24.8c0.8,0,5.2,0,5.2,0c1.7,0,3.9,0.2,4.6,1.8l0.1,0.3h0.3l1.9-6.3L219.4,43.4
		L219.4,43.4z"/>
	<path class="st0" d="M510.8,43.4h-0.3h-0.1c-0.7,0.3-1.6,0.3-2.5,0.3h-23.7l-0.6-0.1c-0.5-0.1-1-0.1-1.5-0.3H482h-0.1l-2.1,6.3h0.2
		l0.1-0.1c1.5-1.3,3.9-2,6.6-2c0,0,4.2,0,5,0c0,0.9,0,24,0,24v0.7c0,0.3,0,0.6,0,0.8c0,2.2-0.2,4.6-2.3,5.3l-0.3,0.1v0.2h12.4v-0.2
		l-0.2-0.1c-2.7-1.5-2.8-3.2-2.8-6c0-0.1,0-24,0-24.8c0.8,0,4.9,0,4.9,0c1.7,0,3.9,0.2,4.6,1.8l0.1,0.3h0.6L510.8,43.4L510.8,43.4z"
		/>
	<path class="st0" d="M252,71.4c-2.8,1.5-7,3.3-11.6,3.3c-8.9,0-13.7-7.4-13.7-14.3c0-7.4,5.2-12.6,12.6-12.6c3.4,0,6.9,1,10.1,3
		l0.3,0.2v-6.7l0,0c-4-0.9-7.4-1.5-10.3-1.5c-11.8,0.1-20,7.4-20,18.5c0,11.6,8.3,18.3,21.8,18.3c3.3,0,5.8-0.8,8.2-1.7l0.2-0.1
		l2.9-6.3h-0.3L252,71.4z"/>
	<path class="st0" d="M281.5,43.8V44l0.3,0.1c1.9,0.7,2.2,3,2.2,5.1c0,0.3,0,0.6,0,0.9v0.8c0,0,0,5.6,0,6.4c-0.8,0-18.5,0-19.3,0
		c0-0.8,0-6.4,0-6.4v-0.7c0-0.3,0-0.6,0-0.9c0-2.2,0.2-4.6,2.2-5.3l0.3-0.1v-0.2h-11.5v0.2L256,44c2.2,0.8,2.2,3.7,2.2,6v0.8v20.7
		v0.7c0,2.2,0.1,5.3-2.2,6.1l-0.3,0.1v0.2h11.5v-0.2l-0.3-0.1c-2-0.7-2.2-3.2-2.2-5.3c0-0.3,0-0.5,0-0.8v-0.7c0,0,0-8.6,0-9.4
		c0.8,0,18.5,0,19.3,0c0,0.8,0,9.4,0,9.4v0.8c0,0.3,0,0.6,0,0.9c0,2.1-0.2,4.4-2.2,5.1l-0.3,0.1v0.2H293v-0.2l-0.3-0.1
		c-2.3-0.8-2.2-3.9-2.2-6.1v-0.7V50.9v-0.7c0-2.3-0.1-5.3,2.2-6.1L293,44v-0.2h-0.4H281.5z"/>
	<path class="st0" d="M583.6,71.4c-2.8,2.2-6.7,3.3-10.5,3c0,0-5.9-0.5-7.5-0.6c0-0.7,0-10.9,0-11.7c0.7,0,4.4,0,4.4,0
		c1.7,0,3.9,0,4.6,1.3l0.1,0.2h0.3v-6.5h-0.2h-0.1c-0.6,0.3-1.5,0.3-2.4,0.3c0,0-6.1,0-6.8,0c0-0.8,0-8.3,0-9
		c1.8-0.3,3.7-0.3,5.6-0.3c2.5,0,5,0.2,6.7,2l0.1,0.1h0.3v-6.6H578h-0.1c-0.5,0.3-1.2,0.2-2,0.2h-0.6h-19.4V44l0.5,0.2
		c2.4,0.8,2.4,3.8,2.3,6.2V51v20.6v0.7c0,2.3,0.1,5.4-2.3,6.1l-0.3,0.1v0.2h25.1l2.8-7.4h-0.2L583.6,71.4z"/>
	<path class="st0" d="M325.4,71.4c-2.8,2.2-6.7,3.3-10.5,3c0,0-5.9-0.5-7.5-0.6c0-0.7,0-10.9,0-11.7c0.7,0,4.4,0,4.4,0
		c1.7,0,3.9,0,4.6,1.3l0.1,0.2h0.3v-6.5h-0.2h-0.1c-0.6,0.3-1.5,0.3-2.4,0.3c0,0-6.1,0-6.8,0c0-0.8,0-8.3,0-9
		c1.8-0.3,3.7-0.3,5.6-0.3c2.5,0,5,0.2,6.7,2l0.1,0.1h0.3v-6.6h-0.2h-0.1c-0.5,0.3-1.2,0.2-2,0.2h-0.5h-19.4V44l0.3,0.1
		c2.4,0.8,2.4,3.8,2.3,6.2V51v20.6v0.7c0,2.3,0.1,5.4-2.3,6.1l-0.3,0.1v0.2h25l2.8-7.4h-0.2L325.4,71.4z"/>
	<path class="st0" d="M354,71c0,0-6.2-7.1-7.9-9.1c4.5-1.2,8.9-4.7,8.9-9.6c0-5.5-4.9-8.5-12.5-8.5h-13.9H328V44l0.3,0.1
		c2.4,0.8,2.3,3.7,2.3,6.1V51v20.6v0.8c0,2.4,0.1,5.3-2.3,6l-0.3,0.1v0.2h12v-0.2l-0.3-0.1c-2.1-0.7-2.3-3.1-2.3-5.3
		c0-0.3,0-0.6,0-0.8v-0.7c0,0,0-23,0-23.7c1.3-0.2,2.5-0.3,3.5-0.4c2.2-0.1,4.2,0.6,5.5,1.9c1,1,1.5,2.2,1.5,3.6
		c0,5.1-6.1,6.6-9.7,7.1l-0.4,0.1l5.9,8.1l6.5,7.9c1.8,2,3.2,2.6,6.5,2.6h7l-0.7-0.4C359.8,76.3,356.3,73.5,354,71z"/>
	<path class="st0" d="M475.1,71c0,0-6.2-7.1-7.9-9.1c4.5-1.2,8.9-4.7,8.9-9.6c0-5.5-4.9-8.5-12.5-8.5h-13.9h-0.4V44l0.3,0.1
		c2.4,0.8,2.3,3.7,2.3,6.1V51v20.6v0.8c0,2.4,0.1,5.3-2.3,6l-0.3,0.1v0.2h12v-0.2l-0.3-0.1c-2.1-0.7-2.3-3.1-2.3-5.3
		c0-0.3,0-0.6,0-0.8v-0.7c0,0,0-23,0-23.7c1.3-0.2,2.5-0.3,3.5-0.4c2.2-0.1,4.2,0.6,5.5,1.9c1,1,1.5,2.2,1.5,3.6
		c0,5.1-6.1,6.6-9.7,7.1l-0.3,0.1l5.9,8.1l6.5,7.9c1.8,2,3.2,2.6,6.5,2.6h7l-0.7-0.4C480.8,76.3,477.3,73.5,475.1,71z"/>
	<path class="st0" d="M612,71c0,0-6.2-7.1-7.9-9.1c4.5-1.2,8.9-4.7,8.9-9.6c0-5.5-4.9-8.5-12.5-8.5h-13.9h-0.4V44l0.3,0.1
		c2.4,0.8,2.3,3.7,2.3,6.1V51v20.6v0.8c0,2.4,0.1,5.3-2.3,6l-0.3,0.1v0.2h12v-0.2l-0.3-0.1c-2.1-0.7-2.3-3.1-2.3-5.3
		c0-0.3,0-0.6,0-0.8v-0.7c0,0,0-23,0-23.7c1.3-0.2,2.5-0.3,3.5-0.4c2.2-0.1,4.2,0.6,5.5,1.9c1,1,1.5,2.2,1.5,3.6
		c0,5.1-6.1,6.6-9.7,7.1l-0.4,0.1l5.9,8.1l6.5,7.9c1.8,2,3.2,2.6,6.5,2.6h7l-0.7-0.4C617.8,76.3,614.3,73.5,612,71z"/>
	<path class="st0" d="M391.3,58.2c1.7,0.7,3.5,0.9,5.3,0.9c8.3,0,16.1-4.9,16.1-12.5c0-7.4-7.2-11.6-16.9-11.6h-17.9v0.2
		c3.7,1.3,3.2,6.2,3.2,9.2v25.2c0,3,0.4,7.9-3.3,9.1v0.2h14.6v-0.2c-3.9-2-3.8-4.7-3.8-8.4V40.1c1.7-0.3,3.4-0.4,5.1-0.4
		c5.9,0,10.4,2.3,10.4,8.2C404.4,54.2,397.6,57.8,391.3,58.2z"/>
	<path class="st0" d="M441.9,71.8l-0.3-0.8c-0.1-0.3,0.1,0.2-11.6-27.3h-0.5h-9.2v0.2l0.3,0.1c0.7,0.2,1.1,0.5,1.3,0.9
		c0.4,0.8,0,2.1-0.5,3.2l-0.1,0.3l-9.4,22.4l-0.4,1c-1.1,2.7-2,5.2-4.8,6.5l-0.3,0.1v0.2h11.1v-0.2l-0.3-0.1
		c-0.9-0.3-1.4-0.7-1.6-1.1c-0.1-0.2-0.1-0.4-0.1-0.7c0-0.8,0.3-1.8,0.7-3c0,0,2.4-6.1,2.9-7.5c0.6,0,12.8,0,13.4,0
		c0.2,0.5,3,7.4,3,7.4l0.3,0.6c0.6,1.4,0.8,2.2,0.8,2.8c0,0.7-0.5,1-1.7,1.5l-0.3,0.1v0.2h12.3v-0.2l-0.2-0.1
		C444,77.1,443,74.5,441.9,71.8z M420.9,61.3c0.4-1,4.2-10.1,4.8-11.7c0.7,1.6,4.4,10.7,4.8,11.7C429.4,61.3,422,61.3,420.9,61.3z"
		/>
	<path class="st0" d="M541.5,43.8V44l0.2,0.1c2.6,1.4,2.7,3.2,2.7,6c0,0.1,0,17.3,0,19.5c-1.5-1.8-19.7-23.6-19.7-23.6l-1.5-2.1
		h-0.3h-8.7v0.2l0.2,0.1c2.7,1.5,2.7,3.4,2.7,6.3v21.7c0,2.9,0,4.8-2.7,6.3l-0.2,0.1v0.2h10.7v-0.2l-0.2-0.1c-2.6-1.5-2.7-3.3-2.7-6
		c0-0.1,0-17.7,0-19.9c1.5,1.8,18.4,22.2,18.4,22.2c2.3,2.9,4.2,4.3,8.3,5.6l0.6,0.2V50.5c0-2.9,0-4.8,2.7-6.3l0.2-0.1v-0.2h-0.4
		h-10.3V43.8z"/>
	<path class="st0" d="M639.1,58.3c-4.2-1.8-8.2-3.6-8.2-6.6c0-3.2,3.6-4.4,6.7-4.4c3.1,0,6.4,1.3,8.4,3.2l0.7,0.7v-6.8l-0.3-0.1
		c-2.6-0.8-5.5-1.2-8.4-1.2c-6.7,0-14.4,2-14.4,9.1c0,6.3,5.8,8.8,10.9,11c4.4,1.9,8.2,3.5,8.2,7c0,3.3-4.4,5.1-7.5,5.1
		c-4.2,0-8.6-1.6-11.9-4.3l-1-0.9l1.9,7.7l0.2,0.1c3.1,1.1,6.5,1.6,10.1,1.6c8.5,0,15.5-4.6,15.5-10.9C650,63,644.2,60.5,639.1,58.3
		z"/>
</g>
</svg>
