<?xml version="1.0" encoding="utf-8"?>
<!-- Generator: Adobe Illustrator 20.1.0, SVG Export Plug-In . SVG Version: 6.00 Build 0)  -->
<!DOCTYPE svg PUBLIC "-//W3C//DTD SVG 1.1//EN" "http://www.w3.org/Graphics/SVG/1.1/DTD/svg11.dtd">
<svg version="1.1" xmlns="http://www.w3.org/2000/svg" xmlns:xlink="http://www.w3.org/1999/xlink" x="0px" y="0px"
	 viewBox="0 0 692.6 151.3" style="enable-background:new 0 0 692.6 151.3;" xml:space="preserve">
<style type="text/css">
	.st0{fill:#FFFFFF;}
</style>
<g id="accountants__x26__auditors">
</g>
<g id="New_PP_Logo">
	<g>
		<g>
			<path class="st0" d="M165.5,115.4c-0.8-0.5-1.8-0.9-2.8-0.9c-2.1,0-3.5,1.5-3.5,3.7c0,2.2,1.5,4.2,3.8,4.2c1.1,0,2.2-0.4,3.2-0.9
				h0l-0.8,1.7c-0.7,0.3-1.5,0.5-2.3,0.5c-3.5,0-5.7-2-5.7-5.2c0-3.1,2.2-5.2,5.3-5.2c0.9,0,1.8,0.2,2.7,0.4V115.4z"/>
			<path class="st0" d="M186.5,118.3c0,3.1-2.5,5.3-5.5,5.3c-3,0-5.5-2.1-5.5-5.2c0-2.9,2.5-5.2,5.6-5.2
				C184.3,113.2,186.5,115.6,186.5,118.3z M177.2,118.3c0,2.1,1.5,4.3,3.8,4.3c2.3,0,3.7-1.7,3.7-3.9c0-2.2-1.4-4.3-3.8-4.3
				C178.7,114.3,177.2,116,177.2,118.3z"/>
			<path class="st0" d="M198.3,121.4c0,0.8,0,1.4,0.8,1.9v0h-2.7v0c0.8-0.5,0.8-1.1,0.8-1.9v-6c0-0.8,0-1.4-0.8-1.9v0h2.2v0
				c0.1,0.2,0.1,0.3,0.2,0.4l0.2,0.3l5.5,6.9v-5.7c0-0.8,0-1.4-0.8-1.9v0h2.6v0c-0.8,0.5-0.8,1.1-0.8,1.9v8.4
				c-1.1-0.4-1.5-0.9-2.2-1.7l-5.1-6.5V121.4z"/>
			<path class="st0" d="M222.1,115.3c-0.6-0.6-1.5-0.9-2.4-0.9c-0.9,0-1.9,0.3-1.9,1.4c0,2.1,5.2,2,5.2,4.8c0,1.6-1.7,3.1-4,3.1
				c-0.9,0-1.8-0.1-2.7-0.5l-0.4-1.9c0.9,0.8,2.1,1.2,3.3,1.2c0.9,0,2.1-0.5,2.1-1.6c0-2.3-5.2-1.9-5.2-5.1c0-1.9,1.9-2.6,3.8-2.6
				c0.8,0,1.5,0.1,2.2,0.3V115.3z"/>
			<path class="st0" d="M239.9,122.4c-0.7,0.9-1.9,1.2-2.9,1.2c-1,0-2-0.3-2.7-1.1c-0.8-0.9-0.8-1.9-0.8-3v-4c0-0.7,0.1-1.8-0.7-2.1
				v0h2.9v0c-0.8,0.3-0.7,1.4-0.7,2.1v4c0,2,0.8,2.9,2.4,2.9c0.8,0,1.7-0.3,2.2-1.1c0.3-0.4,0.3-0.8,0.3-1.4v-4.5
				c0-0.7,0.1-1.8-0.7-2.1v0h2.8l0,0c-0.8,0.3-0.7,1.4-0.7,2.1v5.7c0,0.7-0.1,1.8,0.7,2.1v0h-2.2V122.4z"/>
			<path class="st0" d="M256.6,122.3c1,0.1,1.9-0.3,2.7-0.9h0l-0.8,2h-6.2v0c0.8-0.3,0.7-1.4,0.7-2.1v-5.7c0-0.7,0.1-1.8-0.7-2.1v0
				h2.9v0c-0.8,0.3-0.7,1.4-0.7,2.1v6.5L256.6,122.3z"/>
			<path class="st0" d="M272.1,121.4c0,0.9,0,1.4,0.8,1.9v0h-3v0c0.8-0.3,0.7-1.4,0.7-2.1v-6.7h-1.3c-0.6,0-1.3,0.2-1.8,0.6h0
				l0.5-1.8h0c0.2,0.1,0.4,0.1,0.6,0.1h0.4h5.6c0.3,0,0.5,0,0.7-0.1h0l-0.5,1.8h0c-0.2-0.5-0.8-0.6-1.3-0.6h-1.4V121.4z"/>
			<path class="st0" d="M285.1,115.6c0-0.7,0.1-1.8-0.7-2.1v0h2.8v0c-0.8,0.3-0.7,1.4-0.7,2.1v5.7c0,0.7-0.1,1.8,0.7,2.1v0h-2.8v0
				c0.8-0.3,0.7-1.4,0.7-2.1V115.6z"/>
			<path class="st0" d="M299.1,121.4c0,0.8,0,1.4,0.8,1.9v0h-2.7v0c0.8-0.5,0.8-1.1,0.8-1.9v-6c0-0.8,0-1.4-0.8-1.9v0h2.2v0
				c0.1,0.2,0.1,0.3,0.2,0.4l0.2,0.3l5.5,6.9v-5.7c0-0.8,0-1.4-0.8-1.9v0h2.6v0c-0.8,0.5-0.8,1.1-0.8,1.9v8.4
				c-1.1-0.4-1.5-0.9-2.2-1.7l-5.1-6.5V121.4z"/>
			<path class="st0" d="M325.4,115.3L325.4,115.3c-0.7-0.7-1.8-0.9-2.7-0.9c-2.3,0-4.1,1.5-4.1,3.9c0,2.4,1.9,4.2,4.3,4.2
				c0.7,0,1.4-0.1,2.1-0.3v-2.2c0-0.7,0-1.4-0.7-1.7v0h2.3v0c-0.1,0.2-0.1,0.4-0.1,0.6v3.5c0,0.2,0,0.5,0.1,0.7
				c-1.2,0.2-2.4,0.5-3.6,0.5c-3.8,0-6.1-2.1-6.1-5.1c0-3.2,2.6-5.2,6.2-5.2c0.8,0,1.6,0.1,2.4,0.3V115.3z"/>
			<path class="st0" d="M353.3,113.5c2,0,3.4,0.9,3.4,2.6c0,1.7-1.6,2.8-3.3,2.8c-0.4,0-0.8,0-1.1-0.2c1.3-0.1,2.7-0.9,2.7-2.3
				c0-1.3-0.9-1.8-2.1-1.8c-0.4,0-0.7,0-1,0.1v6.8c0,0.8,0,1.4,0.8,1.9v0h-3v0c0.8-0.3,0.7-1.4,0.7-2.1v-5.7c0-0.7,0.1-1.8-0.7-2.1
				v0H353.3z"/>
			<path class="st0" d="M369.9,121.4c0,0.9,0,1.4,0.8,1.9v0h-3v0c0.8-0.3,0.7-1.4,0.7-2.1v-6.7h-1.3c-0.6,0-1.3,0.2-1.8,0.6h0
				l0.5-1.8h0c0.2,0.1,0.4,0.1,0.6,0.1h0.4h5.6c0.3,0,0.5,0,0.7-0.1h0l-0.5,1.8h0c-0.2-0.5-0.8-0.6-1.3-0.6h-1.3V121.4z"/>
			<path class="st0" d="M386.6,121.4c0,0.9,0,1.4,0.8,1.9v0h-2.9v0c0.7-0.4,0.6-1.4,0.6-2.1v-2.2l-2.5-4c-0.4-0.7-0.7-1.2-1.4-1.5
				h1.4c0.5,0,0.9,0.1,1.1,0.4l2.4,3.9l1.9-2.8c0.3-0.4,0.6-1.1-0.2-1.5v0h2.6l-3.7,5.6V121.4z"/>
			<path class="st0" d="M416.9,122.3c1,0.1,1.9-0.3,2.7-0.9h0l-0.8,2h-6.2v0c0.8-0.3,0.7-1.4,0.7-2.1v-5.7c0-0.7,0.1-1.8-0.7-2.1v0
				h2.9v0c-0.8,0.3-0.7,1.4-0.7,2.1v6.5L416.9,122.3z"/>
			<path class="st0" d="M432.4,121.4c0,0.9,0,1.4,0.8,1.9v0h-3v0c0.8-0.3,0.7-1.4,0.7-2.1v-6.7h-1.3c-0.6,0-1.3,0.2-1.8,0.6h0
				l0.5-1.8h0c0.2,0.1,0.4,0.1,0.6,0.1h0.4h5.6c0.3,0,0.5,0,0.7-0.1h0l-0.5,1.8h0c-0.2-0.5-0.8-0.6-1.3-0.6h-1.3V121.4z"/>
			<path class="st0" d="M445.4,115.6c0-0.7,0.1-1.8-0.7-2v0h3.7c3.4,0,5.5,1.9,5.5,4.8c0,3-2.3,5-5.6,5h-3.6v0
				c0.8-0.5,0.7-1.2,0.7-2.1V115.6z M446.9,122.2c0.4,0.1,0.7,0.1,1.1,0.1c2.2,0,4.2-1.2,4.2-3.8c0-2.6-1.5-3.9-4-3.9
				c-0.5,0-0.9,0.1-1.3,0.2V122.2z"/>
		</g>
		<g>
			<path class="st0" d="M114.7,56.3c-11.3,20.6-30.5,24.8-30.5,24.8l0,16.6H78l0-21.4c21.5-3.9,31.8-23.1,32.4-24.3l-3.7-3.7
				C96.5,69.9,73.4,72.1,73.4,72.1l0,15.7h-6.2l0-21.6c26.5-0.6,34.5-22.1,34.7-22.7L78.2,19.7L22.3,75.6l55.9,55.9l55.9-55.9
				L114.7,56.3z"/>
			<g>
				<path class="st0" d="M174.3,51.8h-17.8V52c3.7,1.3,3.2,6.2,3.2,9.2v25.1c0,3,0.4,7.9-3.3,9.1v0.2H171v-0.2
					c-3.9-2-3.8-4.7-3.8-8.4v-30c1.7-0.3,3.4-0.4,5.1-0.4c5.9,0,10.4,2.3,10.4,8.2c0,6.4-6.8,9.9-13.1,10.2c1.7,0.7,3.5,0.9,5.3,0.9
					c8.3,0,16.1-4.9,16.1-12.5C191.1,56,183.8,51.8,174.3,51.8z"/>
				<path class="st0" d="M195,60.7v0.2l0.3,0.1c2.4,0.8,2.3,3.7,2.3,6.1l0,0.8v20.5l0,0.7c0,2.3,0.1,5.4-2.3,6.1l-0.3,0.1v0.2h12
					v-0.2l-0.3-0.1c-2.3-0.8-2.3-3.8-2.3-6.1l0-0.7V67.9l0-0.7c0-2.3-0.1-5.4,2.3-6.2l0.3-0.1v-0.2h-0.4H195z"/>
				<path class="st0" d="M241,60.3L241,60.3c-0.8,0.3-1.7,0.4-2.6,0.4c0,0-23.9,0-23.9,0c0,0-0.6-0.1-0.6-0.1
					c-0.5-0.1-1-0.1-1.5-0.3l-0.1,0h-0.1l-2.1,6.3h0.2l0.1-0.1c1.5-1.3,3.9-2,6.6-2c0,0,4.2,0,5,0c0,0.9,0,23.9,0,23.9l0,0.7
					c0,0.3,0,0.6,0,0.8c0,2.2-0.2,4.6-2.3,5.3l-0.3,0.1v0.2h12.4v-0.2l-0.2-0.1c-2.7-1.5-2.8-3.2-2.8-6c0-0.1,0-23.9,0-24.7
					c0.8,0,5.2,0,5.2,0c1.7,0,3.9,0.2,4.6,1.8l0.1,0.3h0.3l1.9-6.3H241z"/>
				<path class="st0" d="M531.5,60.3h-0.3l-0.1,0c-0.7,0.3-1.6,0.3-2.5,0.3c0,0-23.6,0-23.6,0c0,0-0.6-0.1-0.6-0.1
					c-0.5-0.1-1-0.1-1.5-0.3l-0.1,0h-0.1l-2.1,6.3h0.2l0.1-0.1c1.5-1.3,3.9-2,6.6-2c0,0,4.2,0,5,0c0,0.9,0,23.9,0,23.9l0,0.7
					c0,0.3,0,0.6,0,0.8c0,2.2-0.2,4.6-2.3,5.3l-0.3,0.1v0.2h12.4v-0.2l-0.2-0.1c-2.7-1.5-2.8-3.2-2.8-6c0-0.1,0-23.9,0-24.7
					c0.8,0,4.9,0,4.9,0c1.7,0,3.9,0.2,4.6,1.8l0.1,0.3h0.6L531.5,60.3L531.5,60.3z"/>
				<path class="st0" d="M273.5,88.2c-2.8,1.5-7,3.3-11.6,3.3c-8.9,0-13.7-7.4-13.7-14.3c0-7.4,5.2-12.6,12.6-12.6
					c3.4,0,6.9,1,10.1,3l0.3,0.2v-6.7l0,0c-4-0.9-7.4-1.5-10.3-1.5C249.1,59.7,241,67,241,78c0,11.6,8.3,18.2,21.7,18.2
					c3.3,0,5.8-0.8,8.2-1.7l0.2-0.1l2.9-6.3h-0.3L273.5,88.2z"/>
				<path class="st0" d="M302.9,60.7v0.2l0.3,0.1c1.9,0.7,2.2,3,2.2,5.1c0,0.3,0,0.6,0,0.9l0,0.8c0,0,0,5.6,0,6.4
					c-0.8,0-18.4,0-19.2,0c0-0.8,0-6.4,0-6.4l0-0.7c0-0.3,0-0.6,0-0.9c0-2.2,0.2-4.6,2.2-5.3l0.3-0.1v-0.2h-11.5v0.2l0.3,0.1
					c2.2,0.8,2.2,3.7,2.2,6l0,0.8v20.6l0,0.7c0,2.2,0.1,5.3-2.2,6.1l-0.3,0.1v0.2h11.5v-0.2l-0.3-0.1c-2-0.7-2.2-3.2-2.2-5.3
					c0-0.3,0-0.5,0-0.8l0-0.7c0,0,0-8.6,0-9.4c0.8,0,18.4,0,19.2,0c0,0.8,0,9.4,0,9.4l0,0.8c0,0.3,0,0.6,0,0.9
					c0,2.1-0.2,4.4-2.2,5.1l-0.3,0.1v0.2h11.5v-0.2l-0.3-0.1c-2.3-0.8-2.2-3.9-2.2-6.1l0-0.7V67.8l0-0.7c0-2.3-0.1-5.3,2.2-6.1
					l0.3-0.1v-0.2H314H302.9z"/>
				<path class="st0" d="M604.1,88.2c-2.8,2.2-6.7,3.3-10.5,3c0,0-5.9-0.5-7.5-0.6c0-0.7,0-10.9,0-11.7c0.7,0,4.4,0,4.4,0
					c1.7,0,3.9,0,4.6,1.3l0.1,0.2h0.3v-6.5h-0.2l-0.1,0c-0.6,0.3-1.5,0.3-2.4,0.3c0,0-6.1,0-6.8,0c0-0.8,0-8.3,0-9
					c1.8-0.3,3.7-0.3,5.6-0.3c2.5,0,5,0.2,6.7,2l0.1,0.1h0.3v-6.6h-0.2l-0.1,0c-0.5,0.3-1.2,0.2-2,0.2l-0.6,0h-19.3v0.2L577,61
					c2.4,0.8,2.4,3.8,2.3,6.2l0,0.7v20.5l0,0.7c0,2.3,0.1,5.4-2.3,6.1l-0.3,0.1v0.2h25l2.8-7.4h-0.2L604.1,88.2z"/>
				<path class="st0" d="M346.7,88.2c-2.8,2.2-6.7,3.3-10.5,3c0,0-5.9-0.5-7.5-0.6c0-0.7,0-10.9,0-11.7c0.7,0,4.4,0,4.4,0
					c1.7,0,3.9,0,4.6,1.3l0.1,0.2h0.3v-6.5h-0.2l-0.1,0c-0.6,0.3-1.5,0.3-2.4,0.3c0,0-6.1,0-6.8,0c0-0.8,0-8.3,0-9
					c1.8-0.3,3.7-0.3,5.6-0.3c2.5,0,5,0.2,6.7,2l0.1,0.1h0.3v-6.6h-0.2l-0.1,0c-0.5,0.3-1.2,0.2-2,0.2l-0.5,0h-19.3v0.2l0.3,0.1
					c2.4,0.8,2.4,3.8,2.3,6.2l0,0.7v20.5l0,0.7c0,2.3,0.1,5.4-2.3,6.1l-0.3,0.1v0.2h24.9l2.8-7.4h-0.2L346.7,88.2z"/>
				<path class="st0" d="M375.2,87.8c0,0-6.2-7.1-7.9-9.1c4.5-1.2,8.9-4.7,8.9-9.6c0-5.5-4.9-8.5-12.5-8.5h-13.9h-0.5v0.2l0.3,0.1
					c2.4,0.8,2.3,3.7,2.3,6.1l0,0.8v20.5l0,0.8c0,2.4,0.1,5.3-2.3,6l-0.3,0.1v0.2h12v-0.2l-0.3-0.1c-2.1-0.7-2.3-3.1-2.3-5.3
					c0-0.3,0-0.6,0-0.8l0-0.7c0,0,0-22.9,0-23.6c1.3-0.2,2.5-0.3,3.5-0.4c2.2-0.1,4.2,0.6,5.5,1.9c1,1,1.5,2.2,1.5,3.6
					c0,5.1-6.1,6.6-9.7,7.1l-0.4,0.1l5.9,8.1c0,0,6.5,7.9,6.5,7.9c1.8,2,3.2,2.6,6.5,2.6h7l-0.7-0.4C381,93.1,377.5,90.3,375.2,87.8
					z"/>
				<path class="st0" d="M495.9,87.8c0,0-6.2-7.1-7.9-9.1c4.5-1.2,8.9-4.7,8.9-9.6c0-5.5-4.9-8.5-12.5-8.5h-13.9h-0.4v0.2l0.3,0.1
					c2.4,0.8,2.3,3.7,2.3,6.1l0,0.8v20.5l0,0.8c0,2.4,0.1,5.3-2.3,6l-0.3,0.1v0.2h12v-0.2l-0.3-0.1c-2.1-0.7-2.3-3.1-2.3-5.3
					c0-0.3,0-0.6,0-0.8l0-0.7c0,0,0-22.9,0-23.6c1.3-0.2,2.5-0.3,3.5-0.4c2.2-0.1,4.2,0.6,5.5,1.9c1,1,1.5,2.2,1.5,3.6
					c0,5.1-6.1,6.6-9.7,7.1L480,77l5.9,8.1c0,0,6.5,7.9,6.5,7.9c1.8,2,3.2,2.6,6.5,2.6h7l-0.7-0.4C501.6,93.1,498.1,90.3,495.9,87.8
					z"/>
				<path class="st0" d="M632.4,87.8c0,0-6.2-7.1-7.9-9.1c4.5-1.2,8.9-4.7,8.9-9.6c0-5.5-4.9-8.5-12.5-8.5H607h-0.4v0.2l0.3,0.1
					c2.4,0.8,2.3,3.7,2.3,6.1l0,0.8v20.5l0,0.8c0,2.4,0.1,5.3-2.3,6l-0.3,0.1v0.2h12v-0.2l-0.3-0.1c-2.1-0.7-2.3-3.1-2.3-5.3
					c0-0.3,0-0.6,0-0.8l0-0.7c0,0,0-22.9,0-23.6c1.3-0.2,2.5-0.3,3.5-0.4c2.2-0.1,4.2,0.6,5.5,1.9c1,1,1.5,2.2,1.5,3.6
					c0,5.1-6.1,6.6-9.7,7.1l-0.4,0.1l5.9,8.1c0,0,6.5,7.9,6.5,7.9c1.8,2,3.2,2.6,6.5,2.6h7l-0.7-0.4
					C638.2,93.1,634.7,90.3,632.4,87.8z"/>
				<path class="st0" d="M412.4,75c1.7,0.7,3.5,0.9,5.3,0.9c8.3,0,16.1-4.9,16.1-12.5c0-7.4-7.2-11.6-16.8-11.6h-17.8V52
					c3.7,1.3,3.2,6.2,3.2,9.2v25.1c0,3,0.4,7.9-3.3,9.1v0.2h14.6v-0.2c-3.9-2-3.8-4.7-3.8-8.4v-30c1.7-0.3,3.4-0.4,5.1-0.4
					c5.9,0,10.4,2.3,10.4,8.2C425.5,71.1,418.7,74.6,412.4,75z"/>
				<path class="st0" d="M462.8,88.6l-0.3-0.8c-0.1-0.3,0.1,0.2-11.6-27.2h-0.5h-9.2v0.2l0.3,0.1c0.7,0.2,1.1,0.5,1.3,0.9
					c0.4,0.8,0,2.1-0.5,3.2l-0.1,0.3l-9.4,22.3c0,0-0.4,1-0.4,1c-1.1,2.7-2,5.2-4.8,6.5l-0.3,0.1v0.2h11.1v-0.2l-0.3-0.1
					c-0.9-0.3-1.4-0.7-1.6-1.1c-0.1-0.2-0.1-0.4-0.1-0.7c0-0.8,0.3-1.8,0.7-3c0,0,2.4-6.1,2.9-7.5c0.6,0,12.8,0,13.4,0
					c0.2,0.5,3,7.4,3,7.4c0,0,0.3,0.6,0.3,0.6c0.6,1.4,0.8,2.2,0.8,2.8c0,0.7-0.5,1-1.7,1.5l-0.3,0.1v0.2h12.3v-0.2l-0.2-0.1
					C464.9,93.9,463.9,91.3,462.8,88.6z M441.9,78.1c0.4-1,4.2-10.1,4.8-11.7c0.7,1.6,4.4,10.7,4.8,11.7
					C450.4,78.1,443,78.1,441.9,78.1z"/>
				<path class="st0" d="M562.1,60.7v0.2l0.2,0.1c2.6,1.4,2.7,3.2,2.7,6c0,0.1,0,17.2,0,19.4c-1.5-1.8-19.6-23.5-19.6-23.5
					c0,0-1.5-2.1-1.5-2.1l-0.3,0h-8.7v0.2l0.2,0.1c2.7,1.5,2.7,3.4,2.7,6.3v21.6c0,2.9,0,4.8-2.7,6.3l-0.2,0.1v0.2h10.7v-0.2
					l-0.2-0.1c-2.6-1.5-2.7-3.3-2.7-6c0-0.1,0-17.6,0-19.8c1.5,1.8,18.3,22.1,18.3,22.1c2.3,2.9,4.2,4.3,8.3,5.6l0.6,0.2v-30
					c0-2.9,0-4.8,2.7-6.3l0.2-0.1v-0.2h-0.4H562.1z"/>
				<path class="st0" d="M659.4,75.1c-4.2-1.8-8.2-3.6-8.2-6.6c0-3.2,3.6-4.4,6.7-4.4c3.1,0,6.4,1.3,8.4,3.2L667,68v-6.8l-0.3-0.1
					c-2.6-0.8-5.5-1.2-8.4-1.2c-6.7,0-14.4,2-14.4,9.1c0,6.3,5.8,8.8,10.9,11c4.4,1.9,8.2,3.5,8.2,7c0,3.3-4.4,5.1-7.5,5.1
					c-4.2,0-8.6-1.6-11.9-4.3l-1-0.9l1.9,7.7l0.2,0.1c3.1,1.1,6.5,1.6,10.1,1.6c8.5,0,15.5-4.6,15.5-10.9
					C670.3,79.8,664.5,77.3,659.4,75.1z"/>
			</g>
		</g>
	</g>
</g>
</svg>
